<?xml version="1.0" encoding="UTF-8"?>
<svg id="uuid-90c2886f-a3d4-4e17-9331-037bc0f6380b" data-name="Слой 1" xmlns="http://www.w3.org/2000/svg" viewBox="0 0 500 500">
  <defs>
    <style>
      .uuid-1b2ec606-b32b-4642-a363-655adfc2c3e0 {
        stroke-width: 0px;
      }
    </style>
  </defs>
  <path class="uuid-1b2ec606-b32b-4642-a363-655adfc2c3e0" d="m319.49,349h-165.12c-6.83,0-12.36-5.54-12.36-12.36v-120.55c0-6.83,5.54-12.36,12.36-12.36h165.12c6.83,0,12.36,5.54,12.36,12.36v120.55c0,6.83-5.54,12.36-12.36,12.36ZM123.79,209.81v133.11c0,13.42,10.88,24.3,24.3,24.3h177.68c13.42,0,24.3-10.88,24.3-24.3v-133.11c0-13.42-10.88-24.3-24.3-24.3h-177.68c-13.42,0-24.3,10.88-24.3,24.3Z"/>
  <rect class="uuid-1b2ec606-b32b-4642-a363-655adfc2c3e0" x="358.21" y="249.79" width="18" height="53.14" rx="9" ry="9"/>
  <rect class="uuid-1b2ec606-b32b-4642-a363-655adfc2c3e0" x="156.57" y="214.23" width="18" height="124.26" rx="9" ry="9"/>
  <rect class="uuid-1b2ec606-b32b-4642-a363-655adfc2c3e0" x="184.43" y="214.23" width="18" height="124.26" rx="9" ry="9"/>
  <rect class="uuid-1b2ec606-b32b-4642-a363-655adfc2c3e0" x="212.29" y="214.23" width="18" height="124.26" rx="9" ry="9"/>
  <rect class="uuid-1b2ec606-b32b-4642-a363-655adfc2c3e0" x="240.14" y="214.23" width="18" height="124.26" rx="9" ry="9"/>
  <rect class="uuid-1b2ec606-b32b-4642-a363-655adfc2c3e0" x="268" y="214.23" width="18" height="124.26" rx="9" ry="9"/>
  <rect class="uuid-1b2ec606-b32b-4642-a363-655adfc2c3e0" x="295.85" y="214.23" width="18" height="124.26" rx="9" ry="9"/>
</svg>