<?xml version="1.0" encoding="UTF-8"?>
<svg id="bulb" data-name="Слой 1" xmlns="http://www.w3.org/2000/svg" viewBox="0 0 500 500">
  <defs>
    <style>
      .uuid-7dc7f1a0-4b42-40db-a59e-5cc3a183404d {
        stroke-width: 0px;
      }
    </style>
     <script>
      const vectorGraphic = document.querySelector('#bulb');

      function logThisId() {
          console.log(this.id, 'was clicked!');
      }

      vectorGraphic.addEventListener('click', logThisId);
    </script>
  </defs>
  <rect class="uuid-7dc7f1a0-4b42-40db-a59e-5cc3a183404d" x="208.65" y="332.48" width="82.7" height="11.14" rx="5.57" ry="5.57"/>
  <rect class="uuid-7dc7f1a0-4b42-40db-a59e-5cc3a183404d" x="208.65" y="349.2" width="82.7" height="11.14" rx="5.57" ry="5.57"/>
  <rect class="uuid-7dc7f1a0-4b42-40db-a59e-5cc3a183404d" x="208.65" y="365.91" width="82.7" height="11.14" rx="5.57" ry="5.57"/>
  <path class="uuid-7dc7f1a0-4b42-40db-a59e-5cc3a183404d" d="m281.64,324.73h-63.28c-8.65,0-15.69-7.04-15.69-15.69v-27.76c0-5.48-2.33-10.64-6.39-14.16-16.36-14.17-26.34-33.81-28.1-55.29-1.99-24.27,6.89-48.04,24.35-65.21,17.46-17.18,41.37-25.66,65.62-23.27,20.18,1.99,38.84,11.37,52.55,26.41,13.81,15.15,21.41,34.78,21.41,55.29,0,23.75-10.29,46.33-28.22,61.94-4.16,3.62-6.55,8.79-6.55,14.17v27.89c0,8.65-7.04,15.69-15.69,15.69Zm-31.55-190.33c-18.42,0-36.17,7.23-49.54,20.38-15.03,14.79-22.67,35.24-20.96,56.11,1.51,18.48,10.1,35.38,24.18,47.57,6.57,5.69,10.35,14.01,10.35,22.82v27.76c0,2.34,1.9,4.24,4.24,4.24h63.28c2.34,0,4.24-1.9,4.24-4.24v-27.89c0-8.7,3.82-17.01,10.48-22.81,15.43-13.43,24.29-32.86,24.29-53.3,0-17.65-6.54-34.54-18.42-47.57-11.8-12.95-27.86-21.02-45.21-22.73-2.31-.23-4.62-.34-6.92-.34Z"/>
</svg>