<?xml version="1.0" encoding="UTF-8"?>
<svg id="flower" data-name="Слой 1" xmlns="http://www.w3.org/2000/svg" viewBox="0 0 500 500">
  <defs>
    <style>
      .uuid-931632fb-b55b-4926-b2fb-a210fc70079b {
        stroke-width: 0px;
      }
    </style>

     <script>
      const vectorGraphic = document.querySelector('#flower');

      function logThisId() {
          console.log(this);
          console.log('flower was clicked');
      }

      vectorGraphic.addEventListener('click', logThisId);
    </script>
  </defs>
  <path class="uuid-931632fb-b55b-4926-b2fb-a210fc70079b" d="m250,230.89c-17.14,0-31.09-13.95-31.09-31.09v-32c0-17.14,13.95-31.09,31.09-31.09s31.09,13.95,31.09,31.09v32c0,17.14-13.95,31.09-31.09,31.09Zm0-83.88c-11.47,0-20.8,9.33-20.8,20.79v32c0,11.47,9.33,20.8,20.8,20.8s20.8-9.33,20.8-20.8v-32c0-11.47-9.33-20.79-20.8-20.79Z"/>
  <path class="uuid-931632fb-b55b-4926-b2fb-a210fc70079b" d="m332.31,281.09h-32c-17.14,0-31.09-13.95-31.09-31.09s13.95-31.09,31.09-31.09h32c17.14,0,31.09,13.95,31.09,31.09s-13.95,31.09-31.09,31.09Zm-32-51.89c-11.47,0-20.79,9.33-20.79,20.79s9.33,20.8,20.79,20.8h32c11.47,0,20.8-9.33,20.8-20.8s-9.33-20.79-20.8-20.79h-32Z"/>
  <path class="uuid-931632fb-b55b-4926-b2fb-a210fc70079b" d="m250,363.29c-17.14,0-31.09-13.95-31.09-31.09v-32c0-17.14,13.95-31.09,31.09-31.09s31.09,13.95,31.09,31.09v32c0,17.14-13.95,31.09-31.09,31.09Zm0-83.88c-11.47,0-20.8,9.33-20.8,20.8v32c0,11.47,9.33,20.79,20.8,20.79s20.8-9.33,20.8-20.79v-32c0-11.47-9.33-20.8-20.8-20.8Z"/>
  <path class="uuid-931632fb-b55b-4926-b2fb-a210fc70079b" d="m199.68,281.09h-32c-17.14,0-31.09-13.95-31.09-31.09s13.95-31.09,31.09-31.09h32c17.14,0,31.09,13.95,31.09,31.09s-13.95,31.09-31.09,31.09Zm-32-51.89c-11.47,0-20.8,9.33-20.8,20.79s9.33,20.8,20.8,20.8h32c11.47,0,20.79-9.33,20.79-20.8s-9.33-20.79-20.79-20.79h-32Z"/>
</svg>