<?xml version="1.0" encoding="UTF-8"?>
<svg id="folder" data-name="Слой 1" xmlns="http://www.w3.org/2000/svg" viewBox="0 0 500 500">
  <defs>
    <style>
      .uuid-30fdf5ae-c919-4df0-bb9b-977e18b6e12f {
        stroke-width: 0px;
      }
    </style>
    <script>
    const vectorGraphic = document.querySelector('#folder');

      function logThisId() {
          console.log(this);
          console.log('folder was clicked');
      }

      vectorGraphic.addEventListener('click', logThisId);
      </script>
  </defs>
  <path class="folder-top" d="m341.78,152.93v6.73c-1.88-.61-3.85-.93-5.88-.93h-8.91c-.22-6.65-4.62-11.95-10.02-11.95h-133.95c-5.39,0-9.79,5.3-10.02,11.95h-8.91c-2.03,0-4.01.32-5.88.93v-6.73c0-13.55,8.82-24.54,19.71-24.54h144.13c10.89,0,19.71,10.99,19.71,24.54Z"/>
  <path class="uuid-30fdf5ae-c919-4df0-bb9b-977e18b6e12f" d="m329.83,349.69h-159.65c-6.6,0-11.95-6.66-11.95-14.89v-145.15c0-8.22,5.35-14.89,11.95-14.89h159.65c6.6,0,11.95,6.66,11.95,14.89v145.15c0,8.22-5.35,14.89-11.95,14.89Zm-189.22-167.59v160.27c0,16.16,10.52,29.26,23.49,29.26h171.79c12.98,0,23.49-13.1,23.49-29.26v-160.27c0-16.16-10.52-29.26-23.49-29.26h-171.79c-12.98,0-23.49,13.1-23.49,29.26Z"/>
  <path class="uuid-30fdf5ae-c919-4df0-bb9b-977e18b6e12f" d="m341.78,153.76c-1.88-.61-3.85-.93-5.88-.93h-171.8c-2.03,0-4.01.32-5.88.93-10.13,3.25-17.61,14.7-17.61,28.33v160.27c0,16.16,10.52,29.25,23.49,29.25h171.8c12.98,0,23.49-13.1,23.49-29.25v-160.27c0-13.63-7.48-25.08-17.61-28.33Zm0,181.04c0,8.22-5.35,14.89-11.96,14.89h-159.65c-6.6,0-11.96-6.67-11.96-14.89v-145.15c0-8.22,5.35-14.89,11.96-14.89h159.65c6.6,0,11.96,6.67,11.96,14.89v145.15Z"/>
  <path class="uuid-30fdf5ae-c919-4df0-bb9b-977e18b6e12f" d="m280.76,284.98l-27.49,27.49c-.98.98-2.31,1.53-3.69,1.53h-2.95c-1.39,0-2.71-.55-3.69-1.53l-3.61-3.61-23.87-23.88c-1.04-1.04-1.04-2.73,0-3.77l8.66-8.65c1.04-1.04,2.73-1.04,3.77,0l10.54,10.54c.33.33.9.1.9-.37v-70.94c0-1.47,1.19-2.67,2.67-2.67h12.24c1.47,0,2.67,1.19,2.67,2.67v70.94c0,.47.57.71.9.37l10.54-10.54c1.04-1.04,2.73-1.04,3.77,0l8.66,8.65c1.04,1.04,1.04,2.73,0,3.77Z"/>
</svg>