<?xml version="1.0" encoding="UTF-8"?>
<svg id="sand" data-name="Слой 1" xmlns="http://www.w3.org/2000/svg" viewBox="0 0 500 500">
  <defs>
    <script>
      const vectorGraphic = document.querySelector('#sand');

      function logThisId() {
          console.log(this.id, 'was clicked!');
      }

      vectorGraphic.addEventListener('click', logThisId);
    </script>
  </defs>
  <path class="uuid-cbd0aefb-48cc-49e7-b5ec-7b7bde28a5bd" d="m263.89,250l55.95-96.91c1.98-3.42,1.98-7.5,0-10.92s-5.51-5.46-9.46-5.46h-120.77c-3.95,0-7.48,2.04-9.46,5.46s-1.98,7.5,0,10.92l55.95,96.91-55.95,96.91c-1.98,3.42-1.98,7.5,0,10.92,1.98,3.42,5.51,5.46,9.46,5.46h120.77c3.95,0,7.48-2.04,9.46-5.46,1.98-3.42,1.98-7.5,0-10.92l-55.95-96.91Zm-73.82-102.1h119.85l-52.85,91.54-6.1,10.56.06.11c-.34-.07-.68-.11-1.04-.11h0c-.36,0-.7.04-1.04.11l.06-.11-2.41-4.18-3.69-6.38-52.85-91.54Zm52.85,112.67l2.07-3.58v17.4c0,2.77,2.24,5.01,5.01,5.01h0c2.77,0,5.01-2.24,5.01-5.01v-17.4l2.07,3.58,34.5,59.76h-83.15l34.5-59.76Zm-52.85,91.54l12.57-21.77h94.72l12.57,21.77h-119.85Z"/>
</svg>